
<svg width="105" height="105" viewBox="0 0 105 105" fill="none" xmlns="http://www.w3.org/2000/svg">
<rect x="1.79966" y="1.79966" width="100.781" height="100.781" rx="37.7929" stroke="url(#paint0_linear_2386_137)" stroke-width="3.59933"/>
<path d="M67.5075 58.5716C67.5089 57.3607 67.1512 56.1766 66.4795 55.169C65.8078 54.1615 64.8524 53.3758 63.734 52.9114C62.6157 52.447 61.3848 52.3247 60.1969 52.5601C59.0091 52.7954 57.9178 53.3778 57.061 54.2335C56.2042 55.0893 55.6206 56.1799 55.3838 57.3675C55.147 58.555 55.2678 59.7861 55.7309 60.905C56.1939 62.0239 56.9784 62.9803 57.9852 63.6532C58.9919 64.3261 60.1756 64.6852 61.3866 64.6852C63.0081 64.6833 64.5627 64.0388 65.71 62.8929C66.8573 61.747 67.5036 60.1931 67.5075 58.5716ZM57.5335 58.5716C57.532 57.8075 57.7574 57.0601 58.181 56.4241C58.6046 55.7882 59.2075 55.2922 59.9132 54.9991C60.6189 54.706 61.3957 54.629 62.1452 54.7777C62.8948 54.9264 63.5833 55.2942 64.1236 55.8346C64.664 56.3749 65.0318 57.0634 65.1805 57.813C65.3292 58.5625 65.2522 59.3393 64.9591 60.045C64.666 60.7507 64.17 61.3536 63.5341 61.7772C62.8981 62.2008 62.1507 62.4262 61.3866 62.4247C60.3652 62.4228 59.3863 62.0162 58.6641 61.2941C57.942 60.5719 57.5354 59.593 57.5335 58.5716Z" fill="#52FF00"/>
<path d="M81.1113 43.0305L84.7149 38.737C84.9112 38.5068 85.0111 38.2098 84.9938 37.9077C84.9604 37.6197 84.8155 37.3562 84.5901 37.1738L78.3885 31.9409C78.2718 31.8509 78.1384 31.7851 77.996 31.7473C77.8536 31.7095 77.7051 31.7004 77.5591 31.7207C77.4103 31.7334 77.2655 31.7756 77.1331 31.8449C77.0008 31.9142 76.8837 32.0092 76.7885 32.1244L73.1923 36.4105C71.1146 35.2981 68.8912 34.4829 66.587 33.9885V28.3593C66.587 28.2109 66.5577 28.0639 66.5009 27.9268C66.4441 27.7897 66.3609 27.6651 66.2559 27.5601C66.151 27.4552 66.0264 27.3719 65.8892 27.3151C65.7521 27.2583 65.6051 27.2291 65.4567 27.2291H64.9063V23.5595C64.9063 23.259 64.7874 22.9708 64.5757 22.7576C64.3639 22.5445 64.0765 22.4238 63.776 22.4219H59.0275C58.8769 22.4219 58.7278 22.4518 58.5888 22.5099C58.4498 22.5679 58.3237 22.653 58.2179 22.7602C58.1121 22.8674 58.0286 22.9946 57.9723 23.1343C57.916 23.274 57.888 23.4235 57.8899 23.5741V27.2438H57.3395C57.0397 27.2438 56.7523 27.3628 56.5403 27.5748C56.3283 27.7868 56.2092 28.0743 56.2092 28.374V33.9812C53.9053 34.4729 51.6818 35.2857 49.6039 36.3958L45.9783 32.0877C45.8834 31.9734 45.767 31.8789 45.6355 31.8097C45.5041 31.7404 45.3604 31.6978 45.2124 31.6842C45.0645 31.6705 44.9154 31.6862 44.7735 31.7302C44.6317 31.7743 44.4999 31.8459 44.3857 31.9409L38.1914 37.1444C38.0755 37.2377 37.9791 37.353 37.9079 37.4837C37.8367 37.6143 37.7919 37.7577 37.7762 37.9057C37.7605 38.0536 37.7742 38.2033 37.8165 38.3459C37.8588 38.4886 37.9288 38.6215 38.0226 38.737L41.6922 43.0232L41.6041 43.1406H24.3789V45.4011H42.2133V44.858L42.7931 45.269C43.3126 44.54 43.8738 43.8416 44.4738 43.1773L48.3489 47.0524L49.9489 45.4525L46.0958 41.592C50.0029 38.0616 55.0087 35.9877 60.2679 35.7206V41.1884H62.5283V35.7059C67.7922 35.9618 72.804 38.037 76.7078 41.5773L72.84 45.4451L74.4326 47.0451L78.3004 43.1773C81.8407 47.0811 83.916 52.0929 84.1718 57.3567H78.6894V59.6099H84.1718C83.9179 64.872 81.8423 69.8821 78.3004 73.782L74.4326 69.9142L72.84 71.5142L76.7078 75.3819C72.804 78.9222 67.7922 80.9975 62.5283 81.2533V75.8003H60.2532V81.2754C54.9842 81.0327 49.9658 78.9558 46.0664 75.404L49.9489 71.5288L48.3489 69.9289L44.4811 73.7967C44.0701 73.349 43.6665 72.8793 43.2922 72.3875C43.1858 72.2513 43.05 72.1409 42.895 72.0647C42.7399 71.9884 42.5696 71.9482 42.3968 71.9472H24.3789V74.2077H41.8463C46.0133 79.315 52.0241 82.5758 58.5775 83.2842C65.1309 83.9926 71.6997 82.0916 76.8619 77.9928C82.0241 73.8939 85.3644 67.9269 86.1597 61.3835C86.955 54.84 85.1413 48.2466 81.1113 43.0305ZM43.1601 41.2617L40.5179 38.1205L44.9802 34.3775L47.6223 37.5187C45.9939 38.5879 44.4963 39.8442 43.1601 41.2617ZM60.1651 24.675H62.6238V27.1997H60.1578L60.1651 24.675ZM64.2971 33.5922C63.3228 33.477 62.3425 33.4182 61.3614 33.4161C60.3802 33.4149 59.3998 33.4737 58.4257 33.5922V29.5189H64.2971V33.5922ZM75.1592 37.5481L77.794 34.4069L82.2563 38.1499L79.6141 41.2984C78.2765 39.8831 76.7819 38.6248 75.1592 37.5481Z" fill="white"/>
<path d="M21.4724 49.4551H42.2278V51.7156H21.4724V49.4551Z" fill="#52FF00"/>
<path d="M17.4805 57.4375H42.2211V59.698H17.4805V57.4375Z" fill="#52FF00"/>
<path d="M21.4727 65.418H42.2281V67.6785H21.4727V65.418Z" fill="#52FF00"/>
<defs>
<linearGradient id="paint0_linear_2386_137" x1="52.1903" y1="0" x2="52.1903" y2="104.381" gradientUnits="userSpaceOnUse">
<stop stop-color="#52FF00"/>
<stop offset="1" stop-color="#52FF00" stop-opacity="0"/>
</linearGradient>
</defs>
</svg>
