<svg width="105" height="105" viewBox="0 0 105 105" fill="none" xmlns="http://www.w3.org/2000/svg">
<rect x="1.79966" y="1.79966" width="100.781" height="100.781" rx="37.7929" stroke="url(#paint0_linear_2274_770)" stroke-width="3.59933"/>
<g clip-path="url(#clip0_2274_770)">
<path d="M60.04 45.0073C58.7784 44.0731 56.9879 44.3299 56.0489 45.582L49.4568 54.3709L48.9335 53.8476C47.8556 52.7554 45.9661 52.763 44.9053 53.8381C44.3602 54.3775 44.0586 55.0949 44.0586 55.8579C44.0586 56.6209 44.3592 57.3373 44.9015 57.871L47.7471 60.7176C48.2723 61.256 49.0086 61.5662 49.7688 61.5662L49.9848 61.5624C50.8011 61.4929 51.5536 61.08 52.0531 60.4245L60.6155 49.006C61.5584 47.7473 61.3024 45.9549 60.04 45.0073ZM59.0924 47.8662L50.5356 59.2781C50.3644 59.5017 50.1046 59.6444 49.903 59.6644H49.7688C49.5186 59.6644 49.2788 59.5654 49.1009 59.3818L46.242 56.5219C45.871 56.1509 45.8814 55.5506 46.2515 55.1843C46.6197 54.8199 47.221 54.8199 47.5835 55.1891L48.8869 56.4925C49.0819 56.6875 49.3416 56.7874 49.627 56.7684C49.902 56.7484 50.1551 56.6114 50.3206 56.3907L57.5702 46.7246C57.8832 46.306 58.4825 46.2223 58.9011 46.5334C59.3207 46.8483 59.4073 47.4467 59.0924 47.8662Z" fill="#52FF00"/>
<path d="M52.6197 24.4648C36.8819 24.4648 24.0781 37.2686 24.0781 53.0064C24.0781 68.7442 36.8819 81.5479 52.6197 81.5479C68.3575 81.5479 81.1612 68.7442 81.1612 53.0064C81.1612 37.2686 68.3575 24.4648 52.6197 24.4648ZM68.7447 52.055C68.6334 50.1522 68.2091 48.3332 67.4936 46.6616C67.0103 42.3242 66.0313 38.3341 64.6747 34.9301H72.164C76.3615 39.4653 79.0016 45.4581 79.2347 52.055H68.7447ZM56.4842 79.3616C55.5281 79.5015 54.5557 79.5862 53.5701 79.6214V72.9855H61.7539C60.2812 75.8615 58.4878 78.0649 56.4842 79.3616ZM63.8489 72.9855H70.2117C67.3776 75.4838 64.0135 77.3904 60.3078 78.5092C61.6312 77.0165 62.8233 75.1518 63.8489 72.9855ZM43.4845 72.9855H51.6683V79.6214C50.6826 79.5862 49.7103 79.5015 48.7542 79.3616C46.7506 78.0649 44.9572 75.8625 43.4845 72.9855ZM44.9315 78.5092C41.2259 77.3904 37.8608 75.4829 35.0276 72.9855H41.3905C42.4161 75.1527 43.6082 77.0165 44.9315 78.5092ZM48.7542 26.6511C49.7103 26.5113 50.6826 26.4266 51.6683 26.3914V33.0273H43.4845C44.9572 30.1513 46.7506 27.9479 48.7542 26.6511ZM41.3895 33.0273H35.0267C37.8608 30.529 41.2249 28.6224 44.9306 27.5036C43.6072 28.9963 42.4151 30.861 41.3895 33.0273ZM61.7539 33.0273H53.5701V26.3914C54.5557 26.4266 55.5281 26.5113 56.4842 26.6511C58.4878 27.9479 60.2812 30.1503 61.7539 33.0273ZM60.3069 27.5036C64.0125 28.6224 67.3776 30.5299 70.2108 33.0273H63.8479C62.8223 30.8601 61.6293 28.9963 60.3059 27.5036H60.3069ZM52.6197 67.2772C44.7508 67.2772 38.3489 60.8753 38.3489 53.0064C38.3489 45.1375 44.7508 38.7356 52.6197 38.7356C60.4886 38.7356 66.8904 45.1375 66.8904 53.0064C66.8904 60.8753 60.4886 67.2772 52.6197 67.2772ZM53.5711 36.8814V34.9301H62.6339C63.5882 37.1811 64.3645 39.745 64.9249 42.5373C62.1497 39.2798 58.1101 37.1468 53.5711 36.8814ZM51.6683 34.9301V36.8814C47.1292 37.1478 43.0896 39.2808 40.3135 42.5373C40.8748 39.745 41.6512 37.1811 42.6044 34.9301H51.6683ZM51.6683 69.1314V71.0827H42.6054C41.6512 68.8317 40.8748 66.2677 40.3145 63.4754C43.0896 66.733 47.1292 68.866 51.6683 69.1314ZM53.5711 71.0827V69.1314C58.1101 68.865 62.1497 66.732 64.9258 63.4754C64.3645 66.2677 63.5882 68.8317 62.6349 71.0827H53.5711ZM33.0754 34.9301H40.5647C39.208 38.3341 38.229 42.3242 37.7457 46.6616C37.0303 48.3332 36.606 50.1522 36.4946 52.055H26.0047C26.2378 45.4581 28.8769 39.4653 33.0754 34.9301ZM26.0047 53.9578H36.4937C36.605 55.8605 37.0293 57.6796 37.7448 59.3512C38.2281 63.6885 39.207 67.6786 40.5637 71.0827H33.0744C28.8769 66.5474 26.2368 60.5547 26.0037 53.9578H26.0047ZM72.163 71.0827H64.6737C66.0304 67.6786 67.0094 63.6885 67.4927 59.3512C68.2081 57.6796 68.6324 55.8605 68.7437 53.9578H79.2328C78.9997 60.5547 76.3615 66.5474 72.163 71.0827Z" fill="white"/>
</g>
<defs>
<linearGradient id="paint0_linear_2274_770" x1="52.1903" y1="0" x2="52.1903" y2="104.381" gradientUnits="userSpaceOnUse">
<stop stop-color="#52FF00"/>
<stop offset="1" stop-color="#52FF00" stop-opacity="0"/>
</linearGradient>
<clipPath id="clip0_2274_770">
<rect width="57.0831" height="57.0831" fill="white" transform="translate(24.0781 24.4648)"/>
</clipPath>
</defs>
</svg>
