<svg width="105" height="105" viewBox="0 0 105 105" fill="none" xmlns="http://www.w3.org/2000/svg">
<rect x="1.79966" y="2.18638" width="100.781" height="100.781" rx="37.7929" stroke="url(#paint0_linear_2386_128)" stroke-width="3.59933"/>
<path d="M70.744 36.3941C62.6698 35.781 55.874 32.9708 50.545 28.0419C50.3014 27.8168 49.9249 27.8168 49.6819 28.0419C44.3529 32.9708 37.5572 35.781 29.4823 36.3941C29.1509 36.4196 28.8945 36.6956 28.8945 37.0283V57.4308C28.8945 64.8468 33.2287 71.6819 39.9367 74.8451L49.8415 79.5145C49.9281 79.5552 50.0203 79.5756 50.1131 79.5756C50.206 79.5756 50.2982 79.5552 50.3847 79.5145L59.1173 75.3979C59.4347 75.2484 59.5709 74.8693 59.4214 74.5512C59.2719 74.2332 58.8922 74.0971 58.5748 74.2472L50.1138 78.236L40.4799 73.6945C34.2146 70.7399 30.1667 64.3563 30.1667 57.4308V37.6141C38.0635 36.9074 44.7683 34.1361 50.1131 29.3688C55.458 34.1361 62.1628 36.9081 70.059 37.6141V57.4308C70.059 58.7081 69.9171 59.9935 69.6385 61.2523C69.5629 61.5952 69.7791 61.9348 70.122 62.0105C70.4686 62.0881 70.8051 61.87 70.8808 61.5271C71.1797 60.178 71.3311 58.7997 71.3311 57.4302V37.0289C71.3311 36.6963 71.0748 36.4196 70.7434 36.3948L70.744 36.3941Z" fill="white"/>
<path d="M32.0777 55.7031C31.726 55.7031 31.4417 55.9881 31.4417 56.3392V57.4288C31.4417 61.5219 32.9536 65.4731 35.6982 68.5549C35.8242 68.6961 35.9984 68.768 36.1734 68.768C36.3241 68.768 36.4755 68.7152 36.5964 68.6071C36.8584 68.3736 36.8819 67.971 36.6485 67.7089C34.1112 64.86 32.7132 61.2096 32.7132 57.4288V56.3392C32.7132 55.9881 32.4295 55.7031 32.0777 55.7031Z" fill="white"/>
<path d="M42.2688 71.7251L41.5647 71.3937C40.4522 70.8689 39.4021 70.2087 38.4435 69.4295C38.1694 69.2075 37.7686 69.2501 37.5486 69.5223C37.3272 69.7952 37.3686 70.1959 37.6414 70.4173C38.6801 71.2607 39.8181 71.9763 41.0221 72.5443L41.7263 72.8763C41.8147 72.9177 41.9063 72.9368 41.9972 72.9368C42.2357 72.9368 42.4647 72.8019 42.5729 72.5717C42.7223 72.2536 42.5862 71.8752 42.2688 71.7251Z" fill="white"/>
<path d="M72.9035 34.3169C63.6589 34.0472 56.1476 30.9107 50.5794 24.994C50.3383 24.739 49.8937 24.739 49.6527 24.994C44.0839 30.9107 36.5732 34.0472 27.3286 34.3169C26.9844 34.3271 26.7109 34.6082 26.7109 34.953V57.4297C26.7109 65.6878 31.5374 73.2996 39.0068 76.8216L49.8441 81.9311C49.9306 81.9718 50.0229 81.9922 50.1157 81.9922C50.2086 81.9922 50.3008 81.9718 50.3873 81.9311L59.1078 77.8196C59.4252 77.6701 59.5613 77.291 59.4119 76.9729C59.263 76.6549 58.8833 76.5194 58.5653 76.6689L50.1164 80.6526L39.5506 75.6709C32.524 72.3576 27.9837 65.1974 27.9837 57.4297V35.5661C37.0451 35.1769 44.4852 32.0779 50.1164 26.3476C55.7468 32.0779 63.1869 35.1769 72.249 35.5661V57.4297C72.249 59.3379 71.978 61.2353 71.4431 63.0698C71.3452 63.4069 71.5385 63.7599 71.8756 63.8585C72.2159 63.9583 72.5664 63.7624 72.6644 63.426C73.233 61.4764 73.5211 59.4588 73.5211 57.4297V34.9523C73.5211 34.6082 73.2476 34.3271 72.9035 34.3169Z" fill="white"/>
<path d="M42.0682 50.4236H40.0041V43.7201C40.0041 43.3689 39.7198 43.084 39.3681 43.084H36.6673C36.3156 43.084 36.0312 43.3689 36.0312 43.7201C36.0312 44.0712 36.3156 44.3561 36.6673 44.3561H38.732V50.4236H36.6673C36.3156 50.4236 36.0312 50.7085 36.0312 51.0596C36.0312 51.4108 36.3156 51.6957 36.6673 51.6957H42.0682C42.4199 51.6957 42.7042 51.4108 42.7042 51.0596C42.7042 50.7085 42.4199 50.4236 42.0682 50.4236Z" fill="white"/>
<path d="M45.2191 43.084C44.0061 43.084 43.0195 44.0705 43.0195 45.2835V49.4962C43.0195 50.7092 44.0061 51.6957 45.2191 51.6957H46.8531C48.0661 51.6957 49.0526 50.7092 49.0526 49.4962V45.2835C49.0526 44.0705 48.0661 43.084 46.8531 43.084H45.2191ZM47.7805 45.2835V49.4962C47.7805 50.0076 47.3645 50.4236 46.8531 50.4236H45.2191C44.7077 50.4236 44.2917 50.0076 44.2917 49.4962V45.2835C44.2917 44.7721 44.7077 44.3561 45.2191 44.3561H46.8531C47.3645 44.3561 47.7805 44.7721 47.7805 45.2835Z" fill="white"/>
<path d="M52.3056 43.084C51.0926 43.084 50.1055 44.0705 50.1055 45.2835V49.4962C50.1055 50.7092 51.0926 51.6957 52.3056 51.6957H53.9397C55.1527 51.6957 56.1392 50.7092 56.1392 49.4962V45.2835C56.1392 44.0705 55.1527 43.084 53.9397 43.084H52.3056ZM54.8671 45.2835V49.4962C54.8671 50.0076 54.4511 50.4236 53.9397 50.4236H52.3056C51.7936 50.4236 51.3776 50.0076 51.3776 49.4962V45.2835C51.3776 44.7721 51.7936 44.3561 52.3056 44.3561H53.9397C54.4511 44.3561 54.8671 44.7721 54.8671 45.2835Z" fill="white"/>
<path d="M58.4544 51.5935C58.5613 51.6628 58.6808 51.6959 58.7998 51.6959C59.0078 51.6959 59.212 51.5935 59.3341 51.4058L64.0951 44.0662C64.2865 43.7717 64.2026 43.3774 63.9074 43.1865C63.6129 42.9951 63.2192 43.0797 63.0277 43.3736L58.2668 50.7132C58.0753 51.0077 58.1593 51.4026 58.4544 51.5935Z" fill="white"/>
<path d="M59.8058 46.368C60.7109 46.368 61.4474 45.6314 61.4474 44.7257C61.4474 43.8199 60.7109 43.084 59.8058 43.084C58.9006 43.084 58.1641 43.8206 58.1641 44.7257C58.1641 45.6308 58.9006 46.368 59.8058 46.368ZM59.8058 44.3561C60.0093 44.3561 60.1753 44.5221 60.1753 44.7257C60.1753 44.9292 60.0093 45.0959 59.8058 45.0959C59.6022 45.0959 59.4362 44.9299 59.4362 44.7257C59.4362 44.5215 59.6022 44.3561 59.8058 44.3561Z" fill="white"/>
<path d="M62.5519 48.4121C61.6467 48.4121 60.9102 49.1487 60.9102 50.0544C60.9102 50.9602 61.6467 51.6968 62.5519 51.6968C63.457 51.6968 64.1935 50.9602 64.1935 50.0544C64.1935 49.1487 63.457 48.4121 62.5519 48.4121ZM62.5519 50.424C62.3483 50.424 62.1823 50.258 62.1823 50.0538C62.1823 49.8496 62.3483 49.6836 62.5519 49.6836C62.7554 49.6836 62.9214 49.8496 62.9214 50.0538C62.9214 50.258 62.7554 50.424 62.5519 50.424Z" fill="white"/>
<path d="M74.6088 68.8712L74.5535 65.9988L71.8375 65.0599L70.1061 62.7656L67.3564 63.6046L64.6066 62.7656L62.8753 65.0593L60.1592 65.9981L60.1039 68.8706L58.4609 71.2272L60.1039 73.5839L60.1592 76.4564L62.8753 77.3952L64.6066 79.6895L67.3564 78.8505L70.1061 79.6895L71.8375 77.3958L74.5535 76.457L74.6088 73.5845L76.2518 71.2279L74.6088 68.8712ZM67.357 77.2826C64.0183 77.2826 61.3016 74.5666 61.3016 71.2279C61.3016 67.8892 64.0183 65.1731 67.357 65.1731C70.6957 65.1731 73.4117 67.8892 73.4117 71.2279C73.4117 74.5666 70.6957 77.2826 67.357 77.2826Z" fill="#52FF00"/>
<path d="M67.3536 66.4492C64.7164 66.4492 62.5703 68.5947 62.5703 71.2318C62.5703 73.869 64.7158 76.0144 67.3536 76.0144C69.9913 76.0144 72.1362 73.869 72.1362 71.2318C72.1362 68.5947 69.9907 66.4492 67.3536 66.4492ZM70.2801 70.0328L66.3053 74.0076C66.1857 74.1272 66.0248 74.194 65.8556 74.194C65.6864 74.194 65.5249 74.1272 65.4059 74.0076L63.8043 72.406C63.5556 72.1573 63.5556 71.7547 63.8043 71.5066C64.053 71.2579 64.455 71.2579 64.7037 71.5066L65.8556 72.6585L69.3807 69.1334C69.6294 68.8847 70.0314 68.8847 70.2801 69.1334C70.5288 69.3821 70.5288 69.7841 70.2801 70.0328Z" fill="#52FF00"/>
<defs>
<linearGradient id="paint0_linear_2386_128" x1="52.1903" y1="0.386719" x2="52.1903" y2="104.767" gradientUnits="userSpaceOnUse">
<stop stop-color="#52FF00"/>
<stop offset="1" stop-color="#52FF00" stop-opacity="0"/>
</linearGradient>
</defs>
</svg>
